<svg width="40" height="40" xmlns="http://www.w3.org/2000/svg" xmlns:xlink="http://www.w3.org/1999/xlink" data-name="Layer 1">
 <defs>
  <linearGradient id="svg_47" x1="0.5" y1="0.86364" x2="0.5" y2="-1.03818">
   <stop offset="0" stop-color="#273a9b"/>
   <stop offset="0.56" stop-color="#202f65"/>
   <stop offset="1" stop-color="#021e2f"/>
  </linearGradient>
  <linearGradient id="svg_45" x1="29.27" y1="42" x2="29.27" y2="25.44" xlink:href="#svg_47" />
  <linearGradient id="svg_43" x1="0.5" y1="1.84838" x2="0.5" y2="-0.72018">
   <stop offset="0" stop-color="#27e9de"/>
   <stop offset="0.52" stop-color="#03a4ec"/>
   <stop offset="1" stop-color="#2547a8"/>
  </linearGradient>
  <linearGradient id="svg_41" x1="25.88" y1="31.92" x2="25.88" y2="12.83" xlink:href="#svg_43" href="#svg_43"/>
  <linearGradient id="svg_39" y1="-4.13" y2="15.85" xlink:href="#svg_43" href="#svg_43"/>
  <linearGradient id="svg_37" y1="56.06" y2="13.03" xlink:href="#svg_43" href="#svg_43"/>
  <linearGradient id="svg_35" x1="0.5" y1="-2.74" x2="0.5" y2="-11">
   <stop offset="0" stop-color="#fff"/>
   <stop offset="0.52" stop-color="#cce2e6"/>
   <stop offset="1" stop-color="#8fa1bb"/>
  </linearGradient>
  <linearGradient id="svg_33" x1="15.76" y1="7.13" x2="15.76" y2="-5.26" xlink:href="#svg_35" href="#svg_35"/>
  <linearGradient id="svg_31" x1="20.26" y1="7.13" x2="20.26" y2="-5.26" xlink:href="#svg_35" href="#svg_35"/>
  <linearGradient id="svg_29" x1="0.50539" y1="2.08286" x2="0.50539" y2="-1.14">
   <stop offset="0" stop-color="#f3c57a"/>
   <stop offset="0.49" stop-color="#f39369"/>
   <stop offset="1" stop-color="#e94867"/>
  </linearGradient>
  <linearGradient id="svg_27" x1="15.74" y1="40.69" x2="15.74" y2="35.66" xlink:href="#svg_29" href="#svg_29"/>
  <linearGradient id="svg_25" x1="29.26" y1="48" x2="29.26" y2="17.95" xlink:href="#svg_43" href="#svg_43"/>
  <linearGradient id="svg_23" x1="29.26" y1="40" x2="29.26" y2="26.55" xlink:href="#svg_43" href="#svg_43"/>
  <linearGradient id="svg_21" x1="24.01" y1="34.33" x2="24.01" y2="18.97" xlink:href="#svg_47" href="#svg_47"/>
 </defs>
 <title>store, shop, building, ecommerce</title>
 <g>
  <title>Layer 1</title>
  <g stroke="null" id="svg_1">
   <title stroke="null">store, shop, building, ecommerce</title>
   <g stroke="null" id="svg_2">
    <title stroke="null">Layer 1</title>
    <rect stroke="null" class="cls-1" x="11.60466" y="19.22322" width="16.03308" height="8.63118" fill="url(#svg_47)" id="svg_46"/>
    <rect stroke="null" class="cls-2" x="18.96206" y="24.03576" width="6.00349" height="3.81865" fill="url(#svg_45)" id="svg_44"/>
    <path stroke="null" class="cls-3" d="m27.29926,15.29996l-15.36503,0l-1.54096,2.88752a0.89072,1.0462 0 0 0 -0.13361,0.5231l0,0.89451a0.32957,0.3871 0 0 0 0.32957,0.3871l18.05502,0a0.32957,0.3871 0 0 0 0.32957,-0.3871l0,-0.87881a0.89072,1.0462 0 0 0 -0.13361,-0.5231l-1.54096,-2.90321l0,-0.00001z" fill="url(#svg_43)" id="svg_42"/>
    <path stroke="null" class="cls-4" d="m19.61674,20.00788l9.02751,0a0.32957,0.3871 0 0 0 0.32957,-0.3871l0,-0.89451a0.89072,1.0462 0 0 0 -0.13361,-0.5231l-1.54096,-2.90321l-15.36503,0l6.86304,1.40714a0.99316,1.16652 0 0 1 0.81947,1.14036l0,2.16041l0.00001,0.00001z" fill="url(#svg_41)" id="svg_40"/>
    <path stroke="null" class="cls-5" d="m12.78487,12.16135l13.66374,0a0.85064,0.99912 0 0 1 0.85064,0.99912l0,2.13948a0,0 0 0 1 0,0l-15.36503,0a0,0 0 0 1 0,0l0,-2.13948a0.85064,0.99912 0 0 1 0.85064,-0.99912l0.00001,0z" fill="url(#svg_39)" id="svg_38"/>
    <path stroke="null" class="cls-6" d="m10.26412,18.72628l0,0.89451a0.32957,0.3871 0 0 0 0.32957,0.3871l18.05057,0a0.32957,0.3871 0 0 0 0.32957,-0.3871l0,-0.89451a0.864,1.01482 0 0 0 -0.03563,-0.29293l-18.6429,0a0.89072,1.0462 0 0 0 -0.03117,0.29293z" fill="url(#svg_37)" id="svg_36"/>
    <circle stroke="null" class="cls-7" cx="13.94282" cy="13.72543" r="0.19474" fill="url(#svg_35)" id="svg_34"/>
    <circle stroke="null" class="cls-8" cx="15.94695" cy="13.72543" r="0.19474" fill="url(#svg_33)" id="svg_32"/>
    <circle stroke="null" class="cls-9" cx="17.95109" cy="13.72543" r="0.19474" fill="url(#svg_31)" id="svg_30"/>
    <path stroke="null" class="cls-10" d="m15.16311,22.36184l1.53205,0a0.89072,1.0462 0 0 1 0.89072,1.0462l0,4.44637a0,0 0 0 1 0,0l-3.3135,0a0,0 0 0 1 0,0l0,-4.43067a0.89072,1.0462 0 0 1 0.89072,-1.0619z" fill="url(#svg_29)" id="svg_28"/>
    <rect stroke="null" class="cls-11" x="14.26348" y="27.03837" width="3.35358" height="0.81604" fill="url(#svg_27)" id="svg_26"/>
    <path stroke="null" class="cls-12" d="m23.62501,25.50045l-3.34022,0a1.33609,1.56931 0 0 1 -1.33609,-1.56931l0,0a1.33609,1.56931 0 0 1 1.33609,-1.56931l3.34022,0a1.33609,1.56931 0 0 1 1.33609,1.56931l0,0a1.33609,1.56931 0 0 1 -1.33609,1.56931z" fill="url(#svg_25)" id="svg_24"/>
    <path stroke="null" class="cls-13" d="m20.28924,23.30865l3.33577,0a1.33609,1.56931 0 0 1 1.26929,1.09328a1.33609,1.56931 0 0 0 0.06681,-0.47079a1.33609,1.56931 0 0 0 -1.33609,-1.56931l-3.34022,0a1.33609,1.56931 0 0 0 -1.33609,1.56931a1.33609,1.56931 0 0 0 0.06681,0.47603a1.33609,1.56931 0 0 1 1.27374,-1.09851l-0.00001,-0.00001z" fill="url(#svg_23)" id="svg_22"/>
    <rect stroke="null" class="cls-14" x="11.60466" y="20.00788" width="16.03308" height="1.08805" fill="url(#svg_21)" id="svg_20"/>
   </g>
  </g>
 </g>
</svg>